<svg id="Capa_1" data-name="Capa 1" xmlns="http://www.w3.org/2000/svg" viewBox="0 0 162.11 161.99"><defs><style>.cls-1{fill:#fff;}</style></defs><path class="cls-1" d="M92.93,21.56A51,51,0,0,1,99.47,34.2a56.75,56.75,0,0,1,5.87,1.08l1,.23.23.07c.41.1.82.21,1.22.33h0l1.17.34,1,.33c.34.11.68.22,1,.35s.63.22,1,.34.63.24,1,.36a54.58,54.58,0,0,1,5.4,2.43c.42.21.84.43,1.25.66.7.37,1.38.77,2.06,1.17l.87.53.41.25.9.6c.3.18.58.38.87.58a57.91,57.91,0,0,1,9.24,7.87c.33.33.65.67,1,1s.51.57.76.85c.41.47.81.94,1.2,1.42.24.28.47.57.69.86s.62.79.91,1.18.56.75.82,1.13.54.76.8,1.15c.52.77,1,1.55,1.51,2.35.25.4.49.8.71,1.21s.47.81.69,1.22c.48.89.94,1.79,1.37,2.7.18.35.35.72.51,1.08s.32.73.48,1.09.28.64.41,1l.36.9c.29.76.57,1.53.83,2.31.16.45.31.9.45,1.36a.14.14,0,0,0,0,.06c.13.44.26.87.38,1.31.36,1.25.68,2.52.95,3.8.07.32.13.65.2,1s.07.37.1.56.1.5.13.75.12.71.17,1.07.12.72.16,1.09c0,.16,0,.32.07.48s.06.54.09.81.06.52.07.77.08.79.11,1.18.06.93.08,1.41,0,1,.06,1.48,0,1,0,1.5a58.14,58.14,0,0,1-58.07,58.07l-1.49,0c-.5,0-1,0-1.49-.06s-1,0-1.46-.09h-.06L86,149.54l-1.17-.12-.72-.1c-.34,0-.69-.09-1-.15H83L82,149l-.86-.15-1.26-.25a57.42,57.42,0,0,1-6.66-1.83l-1.27-.45c-.41-.15-.82-.3-1.24-.47l-1.65-.69c-.35-.14-.7-.29-1-.45l-1.12-.52c-.48-.23-1-.46-1.42-.71l-1.16-.6L63,142.13c-.4-.23-.8-.46-1.2-.71l0,0c-.74-.44-1.46-.91-2.17-1.39a.91.91,0,0,1-.16-.11l-1.15-.79c-.38-.27-.76-.54-1.13-.83s-.74-.55-1.11-.85-.59-.46-.88-.71c-.47-.38-.94-.77-1.4-1.17l-.9-.81a0,0,0,0,0,0,0c-.34-.31-.69-.62-1-.95l-1-1c-.64-.64-1.27-1.3-1.88-2-.32-.36-.65-.72-1-1.09-.61-.7-1.2-1.4-1.76-2.13-.35-.44-.69-.88-1-1.34-.21-.27-.4-.53-.58-.8l-.2-.27c-.23-.32-.47-.66-.69-1s-.44-.66-.66-1-.61-.94-.9-1.43c-.47-.77-.92-1.56-1.35-2.36-.84-1.53-1.61-3.12-2.31-4.74l-.47-1.13a.14.14,0,0,1,0-.06c-.12-.29-.23-.57-.34-.85l-.3-.79c-.1-.27-.2-.55-.29-.83s-.28-.78-.41-1.19-.26-.8-.38-1.2a.27.27,0,0,1,0-.12c-.13-.39-.24-.79-.35-1.18s-.23-.85-.34-1.28c-.32-1.28-.61-2.57-.84-3.88-.08-.44-.16-.87-.23-1.32s-.13-.87-.19-1.32A50.76,50.76,0,0,1,21.68,93,70.22,70.22,0,1,0,92.93,21.56ZM34.08,86.27c.05-.43.09-.86.14-1.29s.11-.86.16-1.28.12-.85.2-1.27.14-.84.21-1.26c.32-1.68.69-3.33,1.15-5,.11-.4.23-.81.35-1.21h0l.3-.94a3,3,0,0,1,.12-.4l.36-1c.1-.3.21-.61.33-.91l.21-.57q.39-1,.81-2c.33-.78.67-1.55,1-2.31.17-.37.35-.72.53-1.08a6.24,6.24,0,0,1,.35-.68q.19-.4.42-.81l.16-.28c.19-.36.39-.71.6-1.07l.55-1,.51-.82.48-.75c.67-1,1.37-2,2.1-3,.25-.34.5-.66.75-1s.38-.5.58-.74c.58-.73,1.18-1.45,1.81-2.15.25-.3.52-.58.77-.87.55-.61,1.12-1.2,1.7-1.78l.72-.7c.37-.36.74-.72,1.12-1.06l.85-.76c.5-.46,1-.9,1.55-1.33.26-.22.53-.44.81-.65,1.17-.93,2.37-1.82,3.61-2.65.35-.25.71-.48,1.08-.71l.85-.55L62,42c.32-.2.64-.39,1-.57s.82-.46,1.23-.68.83-.46,1.24-.66l1.26-.63.07,0c.74-.36,1.5-.7,2.27-1,.57-.24,1.14-.48,1.72-.7.38-.15.76-.3,1.15-.43l1-.37.53-.18,1.15-.37L76,35.91l1.38-.38,1.23-.3.93-.2.42-.1.7-.14,1.25-.23.89-.14c.32-.06.63-.1,1-.14.81-.12,1.63-.22,2.45-.3a38.86,38.86,0,0,0-8.15-11.07A70.3,70.3,0,0,0,23,78.15,39.28,39.28,0,0,0,34.08,86.27Z"/><path class="cls-1" d="M101.5,41.77a50.86,50.86,0,0,0-9.62-.92c-1,0-2,0-3,.1a38.46,38.46,0,0,1,1.37,10.24A39,39,0,0,1,41.05,88.88h0c0,1-.08,1.92-.08,2.89a50.63,50.63,0,0,0,.94,9.76,51.21,51.21,0,0,0,60.45-50.34A52.14,52.14,0,0,0,101.5,41.77ZM51.18,0A51.18,51.18,0,0,0,14.66,87,77.44,77.44,0,0,1,17.4,70.71,39,39,0,0,1,70.62,17.35a76.55,76.55,0,0,1,16.31-2.79A51,51,0,0,0,51.18,0Z"/></svg>